<svg version="1.1" viewBox="0.0 0.0 334.12860892388454 426.43569553805776" fill="none" stroke="none" stroke-linecap="square" stroke-miterlimit="10" xmlns:xlink="http://www.w3.org/1999/xlink" xmlns="http://www.w3.org/2000/svg"><clipPath id="p.0"><path d="m0 0l334.1286 0l0 426.4357l-334.1286 0l0 -426.4357z" clip-rule="nonzero"/></clipPath><g clip-path="url(#p.0)"><path fill="#000000" fill-opacity="0.0" d="m0 0l334.1286 0l0 426.4357l-334.1286 0z" fill-rule="evenodd"/><path fill="#eeeeee" d="m37.53951 325.6596l37.227978 5.3752747l0 0c2.4684372 0.3564148 4.97744 -0.28234863 6.9750443 -1.7757568c1.9976044 -1.4934082 3.3201752 -3.7191467 3.676773 -6.187561l9.17514 -63.51172c3.8146973E-5 -2.4414062E-4 -1.449585E-4 -4.8828125E-4 -4.043579E-4 -5.187988E-4l-55.842117 -8.0624695l0 0c-2.593994E-4 -3.0517578E-5 -4.9591064E-4 1.373291E-4 -5.340576E-4 3.9672852E-4l-9.1746025 63.511322l0 0c-0.7425747 5.1402283 2.8224602 9.908844 7.962723 10.6510315z" fill-rule="evenodd"/><path fill="#eeeeee" d="m79.790855 10.774279l174.23456 0l0 0c11.034882 0 21.617828 4.3835955 29.420685 12.186447c7.8028564 7.8028507 12.186432 18.385786 12.186432 29.420683l0 208.03067c0 0.0011901855 -9.460449E-4 0.0021362305 -0.0021362305 0.0021362305l-257.4467 -0.0021362305l0 0c-0.0011863708 0 -0.0021438599 -9.765625E-4 -0.0021438599 -0.0021362305l0.0021438599 -208.02853l0 0c0 -22.978983 18.628147 -41.607132 41.60713 -41.607132z" fill-rule="evenodd"/><path fill="#eeeeee" d="m104.87809 325.6596l37.227974 5.3752747l0 0c2.4684448 0.3564148 4.9774475 -0.28234863 6.975052 -1.7757568c1.9976044 -1.4934082 3.3201752 -3.7191467 3.676773 -6.187561l9.17514 -63.51172c3.0517578E-5 -2.4414062E-4 -1.5258789E-4 -4.8828125E-4 -3.9672852E-4 -5.187988E-4l-55.842125 -8.0624695l0 0c-2.593994E-4 -3.0517578E-5 -4.9591064E-4 1.373291E-4 -5.340576E-4 3.9672852E-4l-9.174606 63.511322l0 0c-0.74256897 5.1402283 2.822464 9.908844 7.962723 10.6510315z" fill-rule="evenodd"/><path fill="#eeeeee" d="m172.21667 325.6596l37.22798 5.3752747l0 0c2.4684296 0.3564148 4.9774323 -0.28234863 6.9750366 -1.7757568c1.9976044 -1.4934082 3.3201752 -3.7191467 3.676773 -6.187561l9.17514 -63.51172c3.0517578E-5 -2.4414062E-4 -1.373291E-4 -4.8828125E-4 -3.9672852E-4 -5.187988E-4l-55.842117 -8.0624695l0 0c-2.593994E-4 -3.0517578E-5 -5.0354004E-4 1.373291E-4 -5.340576E-4 3.9672852E-4l-9.174606 63.511322l0 0c-0.74256897 5.1402283 2.822464 9.908844 7.962723 10.6510315z" fill-rule="evenodd"/><path fill="#eeeeee" d="m238.57887 325.6596l37.22798 5.3752747l0 0c2.4684448 0.3564148 4.9774475 -0.28234863 6.9750366 -1.7757568c1.9976196 -1.4934082 3.3201904 -3.7191467 3.6767883 -6.187561l9.17514 -63.51172c3.0517578E-5 -2.4414062E-4 -1.5258789E-4 -4.8828125E-4 -3.9672852E-4 -5.187988E-4l-55.842133 -8.0624695l0 0c-2.593994E-4 -3.0517578E-5 -4.8828125E-4 1.373291E-4 -5.340576E-4 3.9672852E-4l-9.174606 63.511322l0 0c-0.74256897 5.1402283 2.822464 9.908844 7.962723 10.6510315z" fill-rule="evenodd"/><path fill="#000000" d="m106.34908 75.154854l0 0c0 -7.984207 6.472481 -14.456692 14.456688 -14.456692l0 0c3.8341599 0 7.5112762 1.5231133 10.222427 4.2342644c2.7111511 2.7111588 4.234268 6.388275 4.234268 10.222427l0 0c0 7.984215 -6.4724884 14.456696 -14.456696 14.456696l0 0c-7.984207 0 -14.456688 -6.472481 -14.456688 -14.456696z" fill-rule="evenodd"/><path fill="#000000" d="m220.88977 75.154854l0 0c0 -7.984207 6.472473 -14.456692 14.45668 -14.456692l0 0c3.8341522 0 7.5112762 1.5231133 10.222427 4.2342644c2.7111664 2.7111588 4.234268 6.388275 4.234268 10.222427l0 0c0 7.984215 -6.472473 14.456696 -14.456696 14.456696l0 0c-7.984207 0 -14.45668 -6.472481 -14.45668 -14.456696z" fill-rule="evenodd"/><path fill="#000000" d="m176.37534 124.32546l0 0c0 -7.984215 4.9283905 -14.456696 11.007874 -14.456696l0 0c2.919464 0 5.7193604 1.5231094 7.783737 4.234268c2.0643768 2.7111511 3.2241364 6.3882675 3.2241364 10.222427l0 0c0 7.984215 -4.928406 14.456688 -11.007874 14.456688l0 0c-6.079483 0 -11.007874 -6.472473 -11.007874 -14.456688z" fill-rule="evenodd"/><path fill="#000000" fill-opacity="0.0" d="m15.191601 362.63516l303.43307 0l0 53.858276l-303.43307 0z" fill-rule="evenodd"/><path fill="#000000" d="m46.7523 407.8243q-3.75 0 -7.015625 -1.359375q-3.25 -1.359375 -5.71875 -3.765625q-2.46875 -2.421875 -3.828125 -5.65625q-1.34375 -3.234375 -1.34375 -6.984375q0 -3.703125 1.34375 -6.90625q1.359375 -3.203125 3.796875 -5.59375q2.453125 -2.390625 5.703125 -3.71875q3.25 -1.34375 7.0 -1.34375q2.625 0 5.109375 0.75q2.5 0.734375 4.515625 2.0625q2.015625 1.328125 3.3125 3.0625l-3.453125 3.59375q-1.484375 -1.421875 -3.046875 -2.359375q-1.546875 -0.9375 -3.171875 -1.421875q-1.625 -0.5 -3.265625 -0.5q-2.65625 0 -4.90625 0.9375q-2.234375 0.9375 -3.9375 2.609375q-1.703125 1.671875 -2.640625 3.921875q-0.9375 2.25 -0.9375 4.90625q0 2.5625 0.984375 4.859375q0.984375 2.296875 2.734375 4.03125q1.75 1.71875 4.046875 2.703125q2.296875 0.984375 4.859375 0.984375q1.921875 0 3.640625 -0.5625q1.734375 -0.578125 3.0625 -1.609375q1.34375 -1.03125 2.078125 -2.390625q0.734375 -1.359375 0.734375 -2.890625l0 -0.984375l0.75 0.6875l-10.5625 0l0 -5.265625l15.296875 0q0.09375 0.53125 0.140625 1.0625q0.046875 0.515625 0.078125 0.984375q0.03125 0.46875 0.03125 0.90625q0 3.40625 -1.1875 6.203125q-1.1875 2.78125 -3.28125 4.8125q-2.09375 2.015625 -4.890625 3.125q-2.78125 1.109375 -6.03125 1.109375zm21.050938 -0.5l0 -36.5l5.078125 0l0 15.9375l-0.875 0.578125q0.484375 -1.71875 1.90625 -3.171875q1.4375 -1.453125 3.40625 -2.359375q1.984375 -0.921875 4.046875 -0.921875q2.96875 0 4.9375 1.15625q1.96875 1.15625 2.953125 3.53125q1.0 2.359375 1.0 5.96875l0 15.78125l-5.078125 0l0 -15.4375q0 -2.21875 -0.59375 -3.671875q-0.59375 -1.453125 -1.828125 -2.125q-1.234375 -0.671875 -3.0625 -0.5625q-1.484375 0 -2.71875 0.46875q-1.21875 0.46875 -2.140625 1.3125q-0.90625 0.828125 -1.4375 1.9375q-0.515625 1.109375 -0.515625 2.390625l0 15.6875l-2.515625 0q-0.640625 0 -1.28125 0q-0.640625 0 -1.28125 0zm40.990845 0.5q-3.796875 0 -6.78125 -1.75q-2.984375 -1.765625 -4.71875 -4.796875q-1.71875 -3.03125 -1.71875 -6.921875q0 -3.90625 1.71875 -6.9375q1.734375 -3.03125 4.71875 -4.78125q2.984375 -1.75 6.78125 -1.75q3.75 0 6.734375 1.75q2.984375 1.75 4.703125 4.78125q1.734375 3.03125 1.734375 6.9375q0 3.890625 -1.734375 6.921875q-1.71875 3.03125 -4.703125 4.796875q-2.984375 1.75 -6.734375 1.75zm0 -4.640625q2.328125 0 4.140625 -1.15625q1.828125 -1.171875 2.859375 -3.15625q1.046875 -2.0 1.0 -4.515625q0.046875 -2.5625 -1.0 -4.5625q-1.03125 -2.0 -2.859375 -3.125q-1.8125 -1.140625 -4.140625 -1.140625q-2.3125 0 -4.171875 1.15625q-1.84375 1.15625 -2.875 3.15625q-1.03125 2.0 -0.984375 4.515625q-0.046875 2.515625 0.984375 4.515625q1.03125 1.984375 2.875 3.15625q1.859375 1.15625 4.171875 1.15625zm27.336777 4.640625q-3.265625 0 -5.875 -1.140625q-2.609375 -1.140625 -4.34375 -3.359375l3.453125 -2.953125q1.484375 1.71875 3.234375 2.484375q1.75 0.765625 3.96875 0.765625q0.890625 0 1.65625 -0.21875q0.765625 -0.21875 1.328125 -0.65625q0.5625 -0.453125 0.859375 -1.0625q0.296875 -0.625 0.296875 -1.359375q0 -1.28125 -0.9375 -2.078125q-0.484375 -0.34375 -1.546875 -0.765625q-1.0625 -0.421875 -2.734375 -0.859375q-2.859375 -0.734375 -4.6875 -1.671875q-1.828125 -0.9375 -2.8125 -2.125q-0.734375 -0.9375 -1.09375 -2.046875q-0.34375 -1.109375 -0.34375 -2.4375q0 -1.640625 0.71875 -2.984375q0.71875 -1.359375 1.96875 -2.375q1.265625 -1.015625 2.96875 -1.546875q1.703125 -0.546875 3.625 -0.546875q1.828125 0 3.625 0.5q1.796875 0.484375 3.328125 1.421875q1.53125 0.9375 2.5625 2.21875l-2.90625 3.203125q-0.9375 -0.9375 -2.046875 -1.640625q-1.109375 -0.71875 -2.25 -1.109375q-1.125 -0.40625 -2.0625 -0.40625q-1.046875 0 -1.890625 0.203125q-0.828125 0.1875 -1.40625 0.59375q-0.5625 0.390625 -0.859375 0.984375q-0.296875 0.59375 -0.296875 1.328125q0.0625 0.640625 0.328125 1.21875q0.265625 0.5625 0.765625 0.953125q0.546875 0.390625 1.625 0.84375q1.09375 0.4375 2.765625 0.828125q2.46875 0.640625 4.0625 1.40625q1.609375 0.765625 2.546875 1.75q0.984375 0.9375 1.375 2.171875q0.40625 1.234375 0.40625 2.765625q0 2.21875 -1.265625 3.96875q-1.25 1.75 -3.375 2.75q-2.125 0.984375 -4.734375 0.984375zm18.206284 -0.5l0 -32.5l5.078125 0l0 32.5l-5.078125 0zm-5.390625 -20.96875l0 -4.921875l16.484375 0l0 4.921875l-16.484375 0zm33.05136 21.46875q-2.8125 0 -5.203125 -0.734375q-2.390625 -0.75 -4.34375 -2.25q-1.9375 -1.515625 -3.46875 -3.734375l3.640625 -4.1875q2.421875 3.453125 4.640625 4.78125q2.21875 1.328125 5.28125 1.328125q1.875 0 3.40625 -0.578125q1.53125 -0.59375 2.40625 -1.625q0.890625 -1.046875 0.890625 -2.375q0 -0.890625 -0.296875 -1.671875q-0.296875 -0.796875 -0.90625 -1.4375q-0.609375 -0.640625 -1.578125 -1.1875q-0.96875 -0.546875 -2.25 -0.953125q-1.28125 -0.421875 -2.953125 -0.71875q-2.671875 -0.546875 -4.640625 -1.4375q-1.96875 -0.890625 -3.3125 -2.21875q-1.328125 -1.328125 -1.96875 -3.03125q-0.640625 -1.703125 -0.640625 -3.828125q0 -2.0625 0.90625 -3.84375q0.921875 -1.78125 2.515625 -3.078125q1.609375 -1.3125 3.78125 -2.015625q2.171875 -0.71875 4.6875 -0.71875q2.671875 0 4.890625 0.6875q2.21875 0.6875 3.9375 2.046875q1.734375 1.359375 2.859375 3.328125l-3.75 3.703125q-0.984375 -1.640625 -2.21875 -2.75q-1.234375 -1.109375 -2.71875 -1.671875q-1.46875 -0.5625 -3.140625 -0.5625q-1.921875 0 -3.359375 0.59375q-1.4375 0.59375 -2.25 1.65625q-0.8125 1.046875 -0.8125 2.484375q0 1.03125 0.390625 1.90625q0.40625 0.859375 1.21875 1.53125q0.8125 0.65625 2.1875 1.171875q1.390625 0.515625 3.3125 0.90625q2.71875 0.59375 4.828125 1.515625q2.125 0.90625 3.59375 2.140625q1.484375 1.234375 2.25 2.765625q0.765625 1.53125 0.765625 3.296875q0 3.3125 -1.53125 5.734375q-1.515625 2.40625 -4.328125 3.71875q-2.8125 1.3125 -6.71875 1.3125zm29.843231 0q-3.59375 0 -6.4375 -1.78125q-2.828125 -1.78125 -4.484375 -4.828125q-1.65625 -3.0625 -1.65625 -6.859375q0 -3.796875 1.65625 -6.859375q1.65625 -3.0625 4.484375 -4.828125q2.84375 -1.78125 6.4375 -1.78125q3.453125 0 6.28125 1.40625q2.84375 1.40625 4.328125 3.8125l-2.8125 3.453125q-0.78125 -1.125 -2.015625 -2.0625q-1.234375 -0.9375 -2.625 -1.484375q-1.375 -0.546875 -2.65625 -0.546875q-2.375 0 -4.21875 1.171875q-1.84375 1.15625 -2.9375 3.1875q-1.078125 2.015625 -1.078125 4.53125q0 2.515625 1.125 4.515625q1.140625 1.984375 3.015625 3.171875q1.875 1.1875 4.140625 1.1875q1.328125 0 2.578125 -0.4375q1.265625 -0.453125 2.453125 -1.34375q1.1875 -0.890625 2.21875 -2.171875l2.8125 3.453125q-1.578125 2.21875 -4.515625 3.65625q-2.9375 1.4375 -6.09375 1.4375zm15.390533 -0.5l0 -25.890625l5.140625 0l0 8.125l-0.5 -1.96875q0.546875 -1.875 1.84375 -3.390625q1.3125 -1.53125 3.015625 -2.421875q1.703125 -0.890625 3.53125 -0.890625q0.828125 0 1.59375 0.15625q0.765625 0.140625 1.21875 0.328125l-1.34375 5.53125q-0.578125 -0.25 -1.296875 -0.421875q-0.71875 -0.171875 -1.40625 -0.171875q-1.328125 0 -2.546875 0.515625q-1.203125 0.515625 -2.125 1.4375q-0.90625 0.90625 -1.453125 2.125q-0.53125 1.203125 -0.53125 2.625l0 14.3125l-5.140625 0zm20.722977 0l0 -25.890625l5.078125 0l0 25.890625l-5.078125 0zm2.46875 -31.625q-1.625 0 -2.515625 -0.828125q-0.890625 -0.84375 -0.890625 -2.375q0 -1.421875 0.90625 -2.3125q0.921875 -0.890625 2.5 -0.890625q1.625 0 2.515625 0.84375q0.890625 0.828125 0.890625 2.359375q0 1.4375 -0.921875 2.328125q-0.90625 0.875 -2.484375 0.875zm10.400696 42.484375l0 -36.75l5.140625 0l0 5.90625l-0.796875 -0.4375q0.296875 -1.484375 1.671875 -2.828125q1.390625 -1.359375 3.390625 -2.21875q2.0 -0.875 4.109375 -0.875q3.5 0 6.21875 1.734375q2.71875 1.71875 4.296875 4.734375q1.578125 3.0 1.578125 6.90625q0 3.84375 -1.5625 6.875q-1.546875 3.03125 -4.265625 4.78125q-2.703125 1.75 -6.109375 1.75q-2.265625 0 -4.390625 -0.90625q-2.125 -0.90625 -3.609375 -2.34375q-1.46875 -1.4375 -1.8125 -2.953125l1.28125 -0.703125l0 17.328125l-5.140625 0zm12.828125 -15.109375q2.265625 0 4.046875 -1.125q1.78125 -1.140625 2.8125 -3.109375q1.03125 -1.96875 1.03125 -4.484375q0 -2.515625 -1.015625 -4.46875q-1.0 -1.953125 -2.78125 -3.078125q-1.765625 -1.140625 -4.09375 -1.140625q-2.3125 0 -4.09375 1.109375q-1.78125 1.109375 -2.8125 3.09375q-1.03125 1.96875 -1.03125 4.484375q0 2.515625 1.03125 4.484375q1.03125 1.96875 2.8125 3.109375q1.78125 1.125 4.09375 1.125zm21.516663 4.25l0 -32.5l5.078125 0l0 32.5l-5.078125 0zm-5.390625 -20.96875l0 -4.921875l16.484375 0l0 4.921875l-16.484375 0z" fill-rule="nonzero"/></g></svg>